 <svg  version="1.0" xmlns="http://www.w3.org/2000/svg"  width="300.000000pt" height="300.000000pt" viewBox="0 0 300.000000 300.000000"  preserveAspectRatio="xMidYMid meet">  <g transform="translate(0.000000,300.000000) scale(0.100000,-0.100000)" fill="#181678" stroke="none"> <path d="M2345 2063 c-78 -28 -136 -66 -219 -144 -85 -80 -152 -173 -168 -234 -10 -38 -16 -43 -62 -59 -73 -26 -129 -67 -227 -165 -62 -63 -95 -106 -120 -156 -31 -64 -34 -77 -34 -165 0 -84 3 -102 28 -152 36 -74 90 -128 163 -164 52 -25 70 -29 149 -29 77 0 98 4 149 28 148 69 320 256 350 380 3 15 12 27 19 27 19 0 129 55 161 81 247 198 322 414 210 604 -76 130 -259 198 -399 148z m211 -26 c131 -39 226 -163 223 -291 l-1 -51 -9 55 c-21 127 -92 205 -228 249 -50 16 -101 13 -165 -9 -78 -27 -120 -57 -231 -165 -60 -59 -76 -82 -99 -143 -24 -61 -27 -83 -23 -140 3 -37 14 -92 26 -122 l22 -55 -31 33 c-17 17 -33 32 -36 32 -10 0 26 -56 50 -80 25 -22 127 -72 134 -65 2 1 -21 27 -50 57 -76 78 -104 168 -79 254 5 17 29 58 55 91 48 64 58 85 29 62 -31 -24 40 54 82 91 22 19 31 25 21 12 -26 -30 -5 -28 23 2 13 13 18 25 12 27 -6 2 -1 10 11 18 21 13 22 13 9 -2 -19 -23 -7 -21 42 7 91 54 185 43 254 -30 69 -71 79 -153 32 -251 -25 -54 -152 -186 -216 -226 -48 -31 -53 -32 -53 -14 0 26 -50 117 -85 156 -34 37 -141 101 -170 101 -7 0 -15 -9 -18 -20 -3 -11 -1 -20 4 -20 5 0 9 5 9 11 0 6 7 3 15 -5 9 -9 33 -23 53 -33 42 -20 129 -103 110 -104 -10 0 -10 -2 0 -6 6 -2 12 -13 12 -24 0 -10 5 -19 10 -19 6 0 10 -13 10 -30 0 -16 4 -30 9 -30 4 0 5 19 1 43 -11 55 -6 57 13 5 25 -70 31 -154 13 -180 -15 -21 -16 -19 -16 44 0 37 -3 69 -7 71 -5 3 -8 -25 -9 -62 -1 -64 -21 -118 -57 -156 -7 -7 -19 -22 -27 -35 -23 -32 -90 -100 -101 -100 -5 0 -9 -4 -9 -10 0 -12 -103 -81 -160 -105 -33 -15 -67 -20 -130 -20 -76 0 -91 3 -139 30 -118 65 -156 129 -156 260 0 123 28 179 145 295 47 47 96 93 108 103 19 15 139 77 149 77 2 0 3 -13 3 -30 0 -20 -5 -30 -16 -30 -22 0 -120 -69 -180 -127 -79 -76 -121 -147 -139 -228 -6 -28 -5 -29 8 -10 8 11 18 31 22 45 27 85 198 258 283 284 12 4 22 14 22 22 0 8 4 14 9 14 5 0 11 24 13 54 7 80 49 155 136 244 43 42 86 84 98 92 68 50 88 61 140 79 67 23 160 27 220 8z m31 -84 c59 -28 118 -93 138 -152 29 -90 7 -199 -52 -259 -13 -13 -23 -27 -23 -31 0 -17 -140 -147 -192 -178 -79 -48 -88 -50 -88 -21 0 17 9 29 27 39 43 22 62 38 153 129 82 82 86 88 109 167 21 73 22 87 12 130 -11 44 -56 123 -70 123 -3 0 -17 10 -31 21 -22 19 -20 18 14 -2 22 -13 36 -17 32 -11 -17 27 -86 52 -148 53 -49 1 -57 3 -38 10 35 12 113 3 157 -18z m-187 2 c0 -2 -19 -14 -42 -26 -46 -23 -46 -17 -1 12 29 18 43 23 43 14z m30 -685 c-8 -5 -19 -10 -25 -10 -5 0 -3 5 5 10 8 5 20 10 25 10 6 0 3 -5 -5 -10z m-240 -283 c0 -2 -12 -14 -27 -28 l-28 -24 24 28 c23 25 31 32 31 24z m-81 -77 c-13 -11 -37 -27 -54 -35 l-30 -15 25 17 c13 10 36 28 50 40 14 12 27 20 29 17 2 -2 -7 -13 -20 -24z m-201 -87 c-10 -2 -28 -2 -40 0 -13 2 -5 4 17 4 22 1 32 -1 23 -4z"/> <path d="M2190 1795 c-19 -19 -31 -35 -28 -35 8 0 70 61 66 66 -3 2 -20 -12 -38 -31z"/> <path d="M2010 1662 c0 -6 -7 -18 -16 -26 -9 -9 -14 -28 -12 -43 3 -25 5 -23 21 21 9 27 15 52 12 54 -3 3 -5 0 -5 -6z"/> <path d="M2081 1527 c-1 -75 16 -107 85 -158 37 -27 54 -46 50 -56 -3 -8 -6 -23 -6 -34 0 -26 -24 -24 -88 6 -69 32 -118 87 -139 155 -25 83 -33 88 -88 56 -57 -34 -177 -146 -215 -201 -31 -45 -61 -129 -62 -174 -1 -17 -5 -28 -11 -24 -5 3 -6 -7 -2 -28 4 -19 11 -35 16 -37 5 -2 9 -9 9 -15 1 -14 42 -54 90 -88 30 -20 47 -24 115 -24 75 0 85 3 139 35 77 46 200 170 233 234 24 45 26 62 25 144 -1 109 -22 164 -80 212 -51 42 -54 28 -4 -20 23 -22 47 -50 53 -62 7 -13 -14 6 -47 41 -32 35 -62 71 -66 80 -4 9 -7 -10 -7 -42z m-124 -69 c26 -97 103 -178 201 -214 26 -10 49 -19 51 -20 6 -5 -47 -87 -77 -120 -59 -63 -160 -142 -205 -159 -99 -37 -205 2 -255 95 -19 37 -23 56 -20 105 5 80 29 126 111 212 58 60 158 141 177 143 3 0 11 -19 17 -42z m189 8 c44 -38 82 -96 63 -96 -20 0 -79 50 -100 84 -35 57 -21 62 37 12z"/> <path d="M2649 1863 c33 -43 55 -114 47 -154 -3 -14 -1 -39 4 -55 6 -22 8 -10 9 52 1 78 -1 84 -36 138 -21 31 -41 56 -46 56 -4 0 5 -17 22 -37z"/> <path d="M365 2046 c-58 -18 -83 -36 -97 -71 -6 -16 -21 -36 -31 -44 -42 -30 -57 -109 -35 -182 13 -46 28 -51 28 -9 0 34 6 37 31 14 10 -9 37 -17 60 -18 37 -1 43 -5 65 -42 15 -25 33 -84 45 -145 39 -208 63 -258 162 -339 54 -45 54 -45 60 -113 3 -38 13 -80 22 -93 20 -31 19 -47 -5 -69 -18 -16 -28 -17 -83 -9 -68 10 -123 -1 -138 -28 -7 -13 -3 -16 23 -14 26 1 33 -3 38 -24 6 -24 7 -24 17 -5 9 16 14 17 26 6 13 -10 21 -9 46 3 34 18 167 39 183 30 18 -11 -11 -21 -52 -18 -25 1 -43 -3 -51 -12 -16 -19 -4 -30 16 -14 12 10 21 10 41 1 20 -9 32 -7 64 9 22 11 48 20 59 20 12 0 23 10 29 28 10 25 10 25 11 4 1 -13 5 -20 11 -17 6 3 10 1 10 -4 0 -6 -6 -11 -13 -11 -8 0 -22 -9 -32 -20 -13 -14 -21 -17 -26 -9 -10 17 -39 3 -39 -19 0 -25 55 -22 74 4 12 16 26 19 80 18 36 0 66 3 66 8 0 5 12 5 28 2 26 -6 26 -6 9 12 -11 12 -32 19 -62 19 -28 0 -52 7 -66 18 l-21 19 21 19 c14 13 21 32 21 55 0 33 2 35 28 30 15 -3 63 -11 107 -17 79 -12 81 -13 135 -70 42 -43 67 -61 105 -72 56 -16 155 -22 155 -8 0 5 -15 19 -34 31 -19 13 -32 30 -30 39 3 17 -72 88 -83 78 -3 -4 11 -23 32 -42 l37 -36 -28 6 c-16 4 -37 9 -48 12 -11 3 -16 1 -12 -6 4 -5 22 -13 41 -17 18 -3 43 -16 55 -29 l22 -23 -23 2 c-34 4 -177 95 -227 144 -23 22 -58 46 -79 51 -48 14 -55 6 -9 -9 20 -6 36 -16 36 -21 0 -12 -10 -11 -95 5 -62 13 -72 12 -87 -2 -10 -8 -18 -21 -18 -29 0 -8 -7 -28 -16 -45 l-16 -30 -22 21 c-13 12 -29 39 -36 60 -7 22 -22 43 -34 48 -93 42 -136 66 -136 78 0 7 -27 37 -61 66 -108 94 -121 123 -165 364 -8 44 -24 95 -34 113 -11 18 -20 42 -20 53 0 10 -6 19 -14 19 -19 0 -50 45 -68 98 -8 23 -17 40 -21 36 -3 -3 -1 -18 4 -33 9 -23 7 -29 -28 -58 -21 -18 -41 -33 -45 -33 -5 0 -8 18 -8 40 0 34 5 49 27 89 1 2 13 4 25 5 13 1 22 7 20 14 -1 7 4 12 10 12 7 0 5 5 -5 11 -24 14 -7 35 35 44 20 5 26 10 18 15 -8 5 -1 11 19 18 18 7 29 7 26 2 -4 -6 -2 -10 4 -10 5 0 13 5 16 10 8 13 30 13 80 -1 49 -13 120 -84 155 -154 14 -27 39 -68 57 -91 17 -23 30 -44 27 -46 -2 -3 8 -11 24 -19 35 -18 163 -116 180 -138 6 -9 22 -30 35 -48 12 -18 54 -74 93 -125 38 -51 83 -120 100 -153 16 -33 44 -82 61 -108 18 -27 31 -53 28 -57 -3 -5 3 -15 13 -22 10 -7 24 -23 31 -35 14 -27 1 -30 -45 -13 -15 6 -29 9 -31 6 -7 -6 57 -34 87 -38 34 -4 33 27 -3 73 -15 20 -27 40 -27 46 0 5 -18 38 -40 72 -22 34 -40 64 -40 66 0 18 -154 241 -190 275 -3 3 -18 22 -33 43 -16 21 -69 69 -117 108 -94 74 -125 109 -180 203 -59 100 -113 153 -174 170 -64 19 -87 19 -141 2z m-19 -257 l16 -31 -44 7 c-54 9 -55 10 -33 35 25 28 42 25 61 -11z m420 -726 c1 -26 -24 -73 -39 -73 -20 0 -43 51 -46 99 l-3 43 44 -26 c24 -14 43 -33 44 -43z m93 -101 c28 -31 19 -52 -25 -64 -22 -6 -32 -4 -42 10 -7 9 -25 17 -40 17 -17 0 -28 6 -30 18 -2 10 3 17 12 17 15 0 41 46 61 105 6 16 10 11 24 -28 9 -27 27 -61 40 -75z m466 -49 c17 -11 17 -13 2 -13 -9 0 -31 14 -49 31 l-33 31 30 -17 c17 -10 39 -24 50 -32z m-610 7 c3 -5 -3 -10 -15 -10 -12 0 -18 5 -15 10 3 6 10 10 15 10 5 0 12 -4 15 -10z m-123 -20 c29 0 -8 -15 -39 -16 -33 -1 -34 0 -17 13 10 7 25 11 32 8 8 -3 19 -5 24 -5z"/> <path d="M365 1970 c-20 -22 -15 -44 13 -59 39 -21 81 36 50 67 -18 18 -43 15 -63 -8z m45 -10 c0 -5 -4 -10 -10 -10 -5 0 -10 5 -10 10 0 6 5 10 10 10 6 0 10 -4 10 -10z m-20 -25 c11 -13 10 -14 -4 -9 -9 3 -16 10 -16 15 0 13 6 11 20 -6z"/> <path d="M456 1963 c-12 -12 -5 -23 14 -23 11 0 20 4 20 9 0 11 -26 22 -34 14z"/> <path d="M260 1900 c0 -5 5 -10 11 -10 5 0 7 5 4 10 -3 6 -8 10 -11 10 -2 0 -4 -4 -4 -10z"/> <path d="M508 1863 c6 -2 18 -2 25 0 6 3 1 5 -13 5 -14 0 -19 -2 -12 -5z"/> <path d="M465 1840 c3 -5 8 -10 11 -10 2 0 4 5 4 10 0 6 -5 10 -11 10 -5 0 -7 -4 -4 -10z"/> <path d="M610 1720 c-13 -8 -13 -10 2 -10 9 0 20 5 23 10 8 13 -5 13 -25 0z"/> <path d="M660 1720 c8 -5 26 -9 40 -9 23 0 23 1 5 9 -11 5 -29 9 -40 9 -17 1 -17 -1 -5 -9z"/> <path d="M549 1693 c-13 -15 -12 -15 9 -4 23 12 28 21 13 21 -5 0 -15 -7 -22 -17z"/> <path d="M551 1550 c-2 -51 75 -179 141 -232 18 -15 53 -44 78 -64 25 -20 47 -39 50 -43 3 -3 10 -7 15 -8 6 -1 44 -20 84 -43 40 -23 74 -40 76 -38 2 2 -29 23 -68 48 -205 126 -302 221 -359 355 -9 22 -17 33 -17 25z"/> <path d="M986 1327 c2 -7 14 -19 27 -26 21 -13 21 -12 -2 13 -27 29 -33 32 -25 13z"/> <path d="M860 1321 c0 -6 4 -13 10 -16 6 -3 7 1 4 9 -7 18 -14 21 -14 7z"/> <path d="M1060 1309 c0 -9 18 -31 41 -49 47 -37 40 -13 -10 34 -22 21 -31 25 -31 15z"/> <path d="M965 1278 c4 -10 30 -32 58 -49 29 -17 72 -48 97 -68 80 -65 86 -66 21 -6 -35 33 -80 68 -99 78 -20 9 -46 27 -59 39 -18 17 -23 18 -18 6z"/> <path d="M1461 1244 c0 -11 3 -14 6 -6 3 7 2 16 -1 19 -3 4 -6 -2 -5 -13z"/> <path d="M1045 1140 c3 -5 8 -10 11 -10 2 0 4 5 4 10 0 6 -5 10 -11 10 -5 0 -7 -4 -4 -10z"/> <path d="M1020 1110 c8 -5 20 -10 25 -10 6 0 3 5 -5 10 -8 5 -19 10 -25 10 -5 0 -3 -5 5 -10z"/> </g> </svg> 