 <svg  version="1.0" xmlns="http://www.w3.org/2000/svg"  width="900.000000pt" height="900.000000pt" viewBox="0 0 900.000000 900.000000"  preserveAspectRatio="xMidYMid meet">  <g transform="translate(0.000000,900.000000) scale(0.100000,-0.100000)" fill="#6e57e0" stroke="none"> <path d="M8390 6245 c0 -8 7 -15 15 -15 8 0 15 7 15 15 0 8 -7 15 -15 15 -8 0 -15 -7 -15 -15z"/> <path d="M7145 6210 c-159 -32 -262 -73 -421 -170 -224 -138 -570 -470 -706 -678 -20 -31 -41 -61 -45 -67 -5 -5 -19 -34 -33 -62 -14 -29 -28 -53 -32 -53 -5 0 -8 -4 -8 -9 0 -5 -5 -22 -12 -38 -29 -73 -47 -130 -48 -155 0 -49 -10 -57 -104 -87 -144 -45 -198 -71 -333 -158 -78 -51 -106 -72 -238 -186 -92 -80 -275 -265 -333 -337 -69 -85 -61 -75 -114 -155 -90 -138 -127 -221 -184 -410 -27 -89 -27 -382 0 -480 11 -38 22 -74 26 -80 4 -5 10 -23 14 -38 11 -47 69 -160 121 -236 60 -90 235 -271 261 -271 4 0 21 -11 38 -24 61 -46 180 -96 314 -132 77 -21 116 -25 231 -25 136 0 196 8 331 47 30 9 66 22 80 29 14 7 36 15 50 18 34 9 201 109 275 165 52 41 94 77 238 203 53 46 167 161 167 168 0 3 12 19 28 33 39 39 54 57 131 161 68 93 77 106 120 194 13 26 27 55 32 63 18 31 49 103 49 112 0 6 7 34 16 64 13 45 20 55 42 60 55 13 148 46 195 70 27 13 53 24 57 24 5 0 28 13 52 28 24 16 70 46 103 68 33 21 62 42 64 47 2 5 16 16 32 26 29 18 121 96 189 161 20 19 59 55 86 81 85 78 256 291 327 407 37 61 67 115 67 119 0 4 13 43 29 87 62 174 93 381 73 480 -11 53 -29 148 -38 201 -9 53 -28 107 -60 169 -41 82 -68 130 -74 136 -3 3 -14 19 -24 35 -59 93 -244 248 -366 307 -213 102 -445 132 -665 88z m385 -80 c135 -22 296 -85 407 -161 104 -71 270 -262 299 -345 4 -10 12 -26 18 -34 7 -8 20 -42 30 -75 10 -33 23 -71 28 -85 15 -35 23 -216 10 -223 -8 -6 -52 148 -52 184 0 18 -70 160 -96 196 -13 17 -24 35 -24 40 0 7 -129 142 -170 178 -66 58 -194 124 -305 158 -145 44 -182 50 -302 45 -189 -8 -367 -69 -533 -182 -46 -31 -86 -56 -91 -56 -4 0 -10 -9 -14 -19 -3 -10 -19 -24 -36 -31 -16 -7 -33 -18 -37 -24 -4 -7 -47 -48 -97 -91 -202 -178 -338 -337 -427 -498 -28 -52 -73 -233 -78 -322 -12 -176 23 -463 62 -512 13 -16 0 -53 -18 -53 -8 0 -14 4 -14 8 0 4 -18 22 -40 38 -46 36 -71 71 -120 167 -19 37 -47 83 -62 101 l-28 34 -97 -52 c-141 -74 -175 -98 -313 -215 -184 -156 -350 -334 -455 -490 -35 -52 -46 -36 -16 23 68 130 171 253 361 429 89 82 270 227 285 227 3 0 26 14 50 30 24 17 50 30 57 30 8 0 23 7 34 15 10 8 29 15 41 15 16 0 25 8 29 25 3 14 15 32 26 39 18 13 21 27 22 133 2 104 6 130 35 213 38 114 88 212 147 294 25 34 55 77 68 97 14 20 87 99 163 176 116 118 180 177 334 307 22 18 136 96 174 119 97 57 261 119 375 142 80 16 282 18 370 5z m260 -320 c32 -16 62 -36 67 -44 4 -7 22 -22 39 -32 39 -24 154 -157 154 -178 0 -20 -36 -21 -44 -1 -3 8 -12 15 -21 15 -8 0 -15 7 -15 15 0 8 -3 15 -8 15 -4 0 -27 26 -51 58 -24 31 -64 73 -88 92 -24 19 -51 43 -61 53 -9 9 -22 17 -29 17 -6 0 -15 5 -18 10 -11 17 14 11 75 -20z m-285 -21 c33 -8 81 -26 106 -42 25 -15 49 -27 53 -27 18 0 111 -81 155 -135 95 -118 142 -245 145 -390 3 -181 -80 -374 -243 -565 -113 -133 -351 -354 -458 -425 -183 -121 -185 -122 -208 -17 -42 180 -220 441 -372 543 -27 17 -52 37 -58 43 -29 32 -235 115 -326 131 -39 7 -60 -8 -40 -28 6 -6 11 -24 11 -39 0 -15 5 -28 10 -28 6 0 10 5 10 12 0 6 10 2 23 -10 13 -12 27 -22 32 -22 13 0 131 -59 199 -100 65 -38 90 -59 162 -130 83 -84 94 -96 94 -103 0 -4 12 -26 26 -48 14 -23 32 -61 39 -86 8 -25 20 -52 28 -61 7 -10 22 -39 32 -66 16 -44 19 -47 26 -28 5 12 14 19 22 17 24 -10 67 -119 67 -172 0 -27 7 -75 15 -106 8 -32 15 -75 15 -95 0 -44 -41 -136 -64 -145 -19 -7 -22 -2 -31 46 -4 20 -10 37 -14 37 -4 0 -15 -26 -26 -57 -26 -81 -100 -237 -119 -252 -9 -8 -16 -20 -16 -27 0 -8 -11 -24 -25 -36 -14 -12 -25 -26 -25 -32 -1 -39 -358 -405 -495 -506 -18 -14 -64 -49 -102 -77 -75 -57 -234 -141 -328 -172 -123 -40 -206 -53 -345 -53 -121 1 -146 4 -238 32 -164 49 -306 135 -433 263 -89 90 -145 180 -190 308 l-34 94 0 190 0 190 34 95 c57 163 121 276 233 416 203 253 506 512 724 618 65 32 138 68 160 79 62 30 74 21 74 -61 0 -72 -10 -92 -45 -92 -22 0 -150 -64 -208 -103 -70 -48 -239 -187 -283 -232 -11 -12 -27 -26 -35 -31 -7 -5 -45 -43 -84 -84 -222 -238 -318 -406 -340 -592 -6 -47 -5 -58 7 -58 8 0 19 5 26 12 23 23 24 -1 3 -84 -11 -46 -23 -108 -27 -138 -4 -30 -10 -62 -15 -70 -10 -20 16 -141 38 -182 10 -17 30 -53 44 -80 25 -45 127 -152 200 -209 103 -80 250 -124 414 -124 162 0 299 42 460 140 80 49 250 192 378 320 110 109 277 322 277 353 0 4 8 23 19 42 21 40 33 91 57 241 15 89 16 116 6 160 -7 30 -14 104 -16 164 -3 103 -6 116 -44 200 -58 133 -101 188 -199 262 -37 27 -112 58 -120 49 -4 -4 -23 10 -44 30 l-37 36 -8 -23 c-5 -13 -7 -79 -6 -147 2 -115 4 -127 34 -188 43 -89 122 -172 246 -259 115 -82 137 -105 128 -139 -7 -30 -44 -76 -61 -76 -37 0 -355 326 -355 364 0 7 -9 32 -21 56 -44 90 -69 199 -69 294 0 50 5 109 11 131 5 22 14 58 20 80 15 64 40 113 65 130 13 9 24 22 24 30 0 8 6 18 13 22 14 8 87 108 87 119 0 10 108 148 160 204 89 96 125 130 142 136 9 3 20 14 23 25 4 10 16 24 28 31 12 6 30 22 40 35 10 12 24 23 31 23 6 0 23 13 36 30 14 16 30 29 35 30 6 0 25 14 43 30 18 17 36 30 40 30 4 0 25 12 46 26 66 45 170 94 201 94 17 1 44 7 60 15 37 17 182 14 270 -6z m445 -209 c17 -17 34 -46 75 -130 13 -25 33 -87 46 -137 21 -87 22 -99 10 -181 -12 -91 -10 -117 15 -126 22 -8 29 36 28 179 0 93 -5 149 -18 195 -23 82 -24 92 -10 97 7 2 17 -9 23 -24 6 -15 20 -41 31 -58 10 -16 21 -41 24 -55 3 -14 12 -43 20 -65 20 -53 21 -233 1 -300 -27 -93 -55 -164 -80 -201 -14 -20 -25 -43 -25 -50 0 -7 -13 -28 -30 -46 -16 -18 -30 -38 -30 -45 0 -6 -8 -18 -18 -25 -10 -7 -30 -32 -43 -55 -50 -84 -218 -258 -389 -404 -58 -49 -114 -97 -125 -106 -70 -62 -265 -164 -317 -166 -31 -2 -33 0 -36 32 -8 76 3 93 81 135 39 22 86 50 102 62 17 13 49 38 73 56 128 98 325 284 418 396 45 54 124 169 124 181 0 6 11 34 24 63 34 75 69 172 93 258 30 108 -3 304 -77 455 -22 45 -40 85 -40 88 0 10 32 -5 50 -23z m-1592 -1130 c111 -74 208 -184 273 -307 9 -18 14 -35 11 -38 -12 -11 -53 -4 -89 17 -41 23 -160 122 -181 150 -7 9 -18 23 -25 30 -7 7 -28 39 -46 70 -18 32 -36 60 -42 63 -5 4 -9 17 -9 31 0 36 37 31 108 -16z m-523 3 c29 -143 73 -249 142 -350 24 -35 43 -66 43 -70 0 -17 159 -161 230 -208 80 -54 214 -116 296 -137 83 -21 91 -37 48 -93 -14 -19 -33 -49 -43 -67 -50 -99 -250 -323 -405 -453 -32 -28 -76 -65 -96 -82 -21 -18 -42 -33 -47 -33 -5 0 -20 -11 -32 -24 -24 -25 -217 -126 -242 -126 -8 0 -32 -7 -54 -15 -24 -8 -79 -14 -136 -15 -112 0 -186 19 -279 72 -8 4 -24 12 -35 17 -63 29 -225 208 -225 249 0 10 -4 22 -10 28 -5 5 -19 36 -30 68 -26 76 -28 273 -4 357 30 105 81 207 154 307 81 110 371 399 438 436 10 5 19 12 22 16 10 12 131 100 138 100 4 0 23 11 42 25 48 33 78 33 85 -2z m192 -253 c13 -14 23 -28 23 -31 0 -13 67 -87 128 -142 56 -49 121 -87 274 -157 26 -12 69 -25 95 -28 39 -6 48 -11 48 -27 0 -16 -8 -21 -38 -23 -53 -5 -129 20 -249 80 -88 44 -115 64 -188 138 -88 90 -158 204 -145 239 6 14 8 14 18 -4 6 -11 21 -31 34 -45z"/> <path d="M5942 4803 c-17 -46 -24 -103 -12 -103 6 0 13 8 16 18 3 9 10 25 15 34 11 22 12 78 0 78 -5 0 -13 -12 -19 -27z"/> <path d="M1155 6145 c-109 -20 -224 -67 -286 -117 -41 -33 -79 -102 -79 -143 0 -21 -17 -43 -75 -97 -86 -81 -115 -127 -140 -220 -27 -102 -18 -213 32 -375 18 -59 44 -89 69 -79 14 6 16 16 10 75 -3 38 -3 77 0 85 9 22 37 20 60 -5 41 -45 179 -84 265 -74 56 7 56 6 88 -32 43 -51 115 -203 135 -283 22 -90 67 -322 77 -398 5 -34 13 -79 18 -100 17 -64 63 -246 69 -272 3 -14 11 -34 18 -45 8 -11 14 -26 14 -33 0 -8 23 -53 52 -101 61 -100 236 -281 373 -383 l85 -63 0 -53 c0 -86 29 -322 48 -386 13 -45 24 -64 44 -75 24 -14 28 -22 28 -63 0 -105 -82 -166 -209 -154 -58 5 -197 27 -272 42 -17 4 -44 -3 -77 -20 -28 -14 -59 -26 -68 -26 -36 0 -86 -34 -105 -72 -11 -21 -17 -43 -14 -48 10 -17 51 -11 70 10 25 28 64 24 104 -9 27 -24 32 -34 27 -58 -12 -58 25 -67 58 -13 18 32 46 39 65 16 6 -8 25 -19 41 -26 26 -11 34 -9 78 18 27 17 76 38 108 47 32 10 79 24 103 31 58 18 224 19 219 2 -3 -7 -29 -18 -59 -23 -70 -13 -98 -29 -114 -68 -25 -61 0 -73 55 -27 42 36 82 39 143 9 50 -25 75 -22 128 14 56 38 120 59 199 66 l75 6 21 40 c22 44 47 52 52 18 4 -30 -29 -76 -76 -105 -28 -17 -49 -22 -89 -20 -42 3 -56 -1 -73 -18 -40 -40 -49 -120 -14 -120 8 0 14 5 14 10 0 13 47 13 55 0 3 -5 18 -10 33 -10 26 0 38 9 110 84 29 30 123 64 200 72 52 6 66 3 99 -16 54 -32 96 -30 133 5 28 27 33 28 63 17 44 -16 77 -15 77 1 0 24 -58 69 -112 89 -87 31 -97 32 -143 9 -41 -21 -46 -21 -81 -6 -53 22 -101 61 -119 95 -14 27 -14 30 11 49 15 12 31 21 35 21 5 0 20 22 34 50 21 41 25 64 25 130 0 96 5 100 89 76 31 -9 75 -16 96 -16 22 0 73 -7 115 -15 41 -8 129 -24 195 -34 193 -32 194 -32 279 -161 37 -56 125 -148 170 -179 42 -28 269 -106 342 -117 28 -4 51 -1 73 10 22 12 37 14 49 7 28 -15 143 -33 168 -27 17 5 24 13 24 31 0 24 -32 51 -158 132 -41 27 -42 29 -37 69 l6 42 -78 66 c-43 36 -93 80 -111 96 -18 17 -48 40 -66 51 -44 26 -166 178 -192 239 -52 124 -86 188 -132 250 -31 41 -77 116 -103 165 -25 50 -64 121 -87 159 -23 37 -42 70 -42 72 0 2 -21 35 -47 75 -27 39 -61 92 -76 117 -16 25 -34 51 -41 57 -7 5 -21 23 -32 39 -49 74 -187 246 -250 312 -21 23 -67 82 -102 132 -77 110 -203 227 -389 362 -98 70 -246 205 -302 274 -78 98 -79 99 -177 266 -123 209 -196 314 -276 392 -94 94 -143 126 -228 151 -168 48 -262 56 -395 32z m42 -56 c7 -7 22 -7 50 1 69 21 191 -2 313 -58 97 -45 216 -174 300 -327 18 -33 41 -69 50 -80 10 -11 21 -31 25 -45 4 -14 32 -60 61 -103 30 -42 54 -81 54 -85 0 -5 27 -47 60 -93 33 -46 60 -92 60 -102 0 -10 8 -20 18 -23 48 -15 141 -71 173 -104 20 -21 54 -49 75 -63 22 -13 45 -32 53 -41 7 -9 18 -16 23 -16 25 0 238 -177 238 -198 0 -6 14 -22 31 -34 16 -13 40 -39 52 -58 11 -19 45 -65 74 -101 29 -36 53 -71 53 -77 0 -6 6 -15 14 -19 16 -10 135 -155 161 -198 10 -16 31 -43 45 -60 29 -33 153 -203 213 -293 20 -31 37 -66 37 -78 0 -12 18 -53 40 -90 22 -39 39 -80 38 -94 -1 -17 19 -53 66 -115 37 -49 79 -110 93 -135 14 -25 38 -63 53 -85 21 -31 26 -45 18 -58 -7 -14 -1 -26 26 -58 19 -23 38 -53 41 -68 7 -32 33 -64 60 -75 20 -7 20 -8 1 -22 -11 -8 -35 -14 -54 -14 -34 0 -35 -1 -18 -19 20 -22 48 -33 123 -50 59 -14 93 -3 93 29 0 31 15 24 44 -22 15 -24 45 -56 67 -72 45 -34 49 -46 15 -46 -26 0 -51 -24 -41 -40 3 -5 15 -10 26 -10 28 0 58 -17 97 -53 35 -33 40 -58 17 -77 -26 -21 -79 4 -250 118 -27 17 -56 32 -66 32 -48 0 -220 126 -295 217 -63 76 -92 98 -180 143 -83 42 -110 44 -101 9 11 -40 -58 -36 -353 22 -87 17 -96 18 -105 3 -5 -9 -25 -34 -42 -56 -18 -22 -38 -58 -44 -81 -20 -75 -30 -95 -50 -100 -11 -3 -19 -14 -19 -26 0 -27 -34 -45 -59 -32 -26 14 -81 100 -130 203 -24 51 -48 89 -59 92 -10 4 -33 20 -50 37 -27 27 -43 32 -102 39 -39 4 -76 12 -83 18 -6 5 -27 13 -44 17 -18 3 -33 10 -33 13 0 4 -22 22 -50 40 -49 32 -65 56 -92 137 -7 22 -29 55 -50 73 -20 18 -40 41 -43 52 -3 10 -21 28 -40 40 -18 11 -51 37 -73 58 -126 118 -172 165 -172 177 0 8 -9 20 -19 27 -11 8 -29 36 -41 63 -13 28 -26 57 -31 65 -4 8 -18 35 -30 60 -12 25 -25 52 -30 62 -13 27 -47 179 -54 248 -4 35 -16 89 -26 119 -10 30 -16 58 -14 61 7 11 -33 189 -70 315 -19 66 -49 142 -65 168 -19 30 -30 62 -30 85 -1 45 -50 105 -95 116 -16 4 -44 18 -62 32 -40 30 -43 30 -43 -1 0 -31 -12 -31 -135 -6 -94 20 -101 26 -67 65 29 32 100 76 123 76 19 0 21 4 15 31 -3 17 -15 42 -25 55 -20 25 -42 113 -38 148 1 10 -3 21 -9 23 -15 5 -34 -41 -23 -58 5 -8 9 -28 9 -45 0 -16 5 -35 11 -41 7 -7 9 -23 5 -38 -7 -28 -82 -115 -98 -115 -6 0 -23 -11 -40 -25 -69 -58 -102 -10 -82 117 23 145 35 162 109 156 24 -3 31 1 33 20 2 12 10 22 18 22 18 0 37 46 29 71 -5 14 -1 19 14 19 32 0 35 19 7 45 -14 13 -26 30 -26 38 0 21 38 56 68 63 15 4 39 15 54 25 14 11 35 19 46 19 16 0 21 8 24 32 3 33 17 44 83 66 41 13 40 13 52 1z m951 -2778 c140 -71 129 -54 112 -170 -8 -54 -15 -70 -46 -103 -56 -57 -78 -50 -123 40 -22 43 -41 212 -28 246 9 22 20 20 85 -13z m277 -98 c15 -76 28 -124 52 -183 55 -140 91 -190 134 -190 22 0 33 -47 20 -83 -16 -42 -58 -59 -203 -83 -36 -6 -38 -5 -55 32 -35 78 -67 93 -117 53 -38 -30 -74 -22 -100 23 -19 35 -20 40 -6 65 10 19 25 29 44 31 44 5 71 28 91 75 11 23 24 49 30 57 21 27 45 105 45 145 0 26 7 46 22 62 28 30 36 29 43 -4z m1491 -459 c19 -15 34 -30 34 -35 0 -14 -57 11 -81 37 -19 21 -20 24 -5 24 9 0 33 -12 52 -26z m-2256 -74 c0 -14 -63 -39 -74 -29 -5 4 -6 15 -3 23 7 18 77 23 77 6z"/> <path d="M1109 5935 c-43 -28 -79 -108 -60 -134 6 -9 15 -25 20 -36 20 -47 85 -71 144 -53 30 9 46 23 68 57 42 67 39 105 -11 153 -35 32 -47 38 -83 37 -26 0 -55 -9 -78 -24z m99 -34 c8 -4 12 -19 10 -32 -2 -19 -9 -24 -33 -24 -24 0 -31 5 -33 24 -4 23 11 41 33 41 6 0 16 -4 23 -9z"/> <path d="M1370 5865 c-16 -19 5 -35 41 -31 48 5 51 32 4 38 -20 2 -40 -1 -45 -7z"/> <path d="M1660 4575 c0 -16 25 -93 45 -140 7 -16 19 -46 26 -65 7 -19 30 -60 51 -90 21 -30 38 -59 38 -64 0 -28 158 -202 270 -298 93 -79 192 -158 199 -158 4 0 26 -18 49 -40 22 -22 48 -40 55 -40 8 0 22 -11 30 -24 20 -30 131 -106 156 -106 10 0 25 -10 33 -22 12 -18 27 -24 75 -27 7 -1 20 -9 30 -19 10 -10 38 -24 62 -32 24 -8 45 -20 48 -27 10 -26 103 -59 103 -37 0 12 -46 43 -72 49 -16 4 -28 11 -28 16 0 5 -4 9 -10 9 -5 0 -37 19 -70 43 -33 23 -68 47 -78 52 -10 6 -50 33 -91 60 -40 28 -80 55 -89 60 -24 14 -93 66 -117 88 -11 11 -42 34 -70 52 -27 17 -59 42 -69 54 -11 11 -23 21 -28 21 -11 0 -35 22 -168 153 -54 54 -102 106 -105 116 -3 11 -17 26 -30 35 -14 9 -25 23 -25 31 0 8 -6 18 -14 22 -7 4 -23 27 -35 51 -12 24 -37 67 -55 95 -31 49 -60 107 -85 170 -11 29 -31 37 -31 12z"/> <path d="M3177 3923 c-4 -3 -7 -19 -7 -34 0 -20 9 -33 33 -48 17 -11 58 -38 90 -61 68 -47 89 -52 54 -12 -83 91 -151 162 -157 162 -4 0 -10 -3 -13 -7z"/> <path d="M2910 3801 c12 -23 29 -35 36 -28 6 5 -31 47 -41 47 -3 0 -1 -9 5 -19z"/> <path d="M2997 3720 c23 -22 51 -40 63 -40 11 0 20 -5 20 -10 0 -6 12 -15 26 -20 31 -12 111 -67 139 -95 43 -44 95 -69 95 -47 0 10 -12 22 -89 89 -73 65 -80 69 -126 77 -22 4 -56 20 -75 34 -36 28 -78 52 -89 52 -3 0 13 -18 36 -40z"/> <path d="M3272 3218 c5 -15 58 -24 58 -10 0 5 -10 12 -22 16 -34 9 -40 7 -36 -6z"/> <path d="M3715 3040 c3 -5 17 -10 31 -10 14 0 22 4 19 10 -3 6 -17 10 -31 10 -14 0 -22 -4 -19 -10z"/> <path d="M3960 2862 c0 -20 39 -42 71 -41 22 1 27 3 14 6 -11 3 -31 14 -44 24 -25 20 -41 24 -41 11z"/> </g> </svg> 
